<svg width="131" height="38" viewBox="0 0 131 38" fill="none" xmlns="http://www.w3.org/2000/svg">
<path fill-rule="evenodd" clip-rule="evenodd" d="M131 3.49376C131.001 4.18625 130.797 4.86356 130.413 5.43995C130.029 6.01634 129.483 6.46591 128.844 6.73178C128.204 6.99764 127.5 7.06785 126.821 6.93351C126.142 6.79917 125.517 6.46632 125.027 5.97709C124.537 5.48785 124.203 4.86423 124.068 4.18512C123.932 3.50602 124.001 2.80197 124.266 2.16207C124.531 1.52216 124.979 0.975171 125.555 0.59031C126.131 0.205449 126.807 1.9256e-05 127.5 1.81519e-05C127.96 -0.00146411 128.415 0.0878466 128.84 0.262821C129.265 0.437796 129.651 0.694988 129.976 1.01962C130.301 1.34426 130.559 1.72995 130.735 2.15453C130.911 2.57912 131.001 3.03424 131 3.49376V3.49376ZM124.685 3.49376C124.685 4.05145 124.85 4.59661 125.16 5.06033C125.47 5.52405 125.91 5.8855 126.426 6.09897C126.941 6.31245 127.508 6.36836 128.055 6.25965C128.602 6.15095 129.104 5.88249 129.499 5.48823C129.893 5.09398 130.162 4.59162 130.271 4.04468C130.38 3.49773 130.324 2.93077 130.111 2.41546C129.897 1.90015 129.536 1.45964 129.073 1.14963C128.609 0.839612 128.064 0.674013 127.506 0.673766C127.135 0.669069 126.766 0.738793 126.421 0.878832C126.077 1.01887 125.764 1.22639 125.501 1.48918C125.238 1.75196 125.031 2.0647 124.891 2.40896C124.75 2.75323 124.68 3.12207 124.685 3.49376V3.49376ZM126.81 5.07875V4.09251H127.546L128.357 5.07875H129.131V5.035L128.506 4.28501C128.43 4.1866 128.342 4.09838 128.244 4.02251V3.98501C128.694 3.82376 129.067 3.53626 129.067 2.97501C129.067 2.28876 128.531 1.83876 127.745 1.83876H126.135V5.08875L126.81 5.07875ZM126.81 3.53126H127.657C128.12 3.53126 128.394 3.34376 128.394 2.97001C128.394 2.62001 128.156 2.39626 127.632 2.39626H126.81V3.53126Z" fill="black"/>
<path d="M85.1301 31.666L79.2242 18.9978H65.2507H61.5109H61.5064H47.5366H47.5351L38.6747 38H52.649L55.6027 31.666H71.1559L74.1081 38H88.0831L85.1301 31.666Z" fill="black"/>
<path d="M125.014 15.533L125.003 15.1579L124.985 14.7828L124.953 14.4047L124.916 14.0296L124.87 13.6582L124.812 13.2831L124.747 12.9125L124.674 12.5456L124.59 12.1743L124.499 11.8111L124.399 11.448L124.292 11.0878L124.173 10.7292L124.047 10.3727L123.913 10.0208L123.771 9.6726L123.623 9.32814L123.463 8.98442L123.294 8.64818L123.121 8.31493L122.937 7.98541L122.747 7.66037L122.547 7.33907L122.341 7.02226L122.128 6.71217L121.909 6.40656L121.68 6.10693L121.447 5.81328L121.202 5.52336L120.953 5.23942L120.7 4.96445L120.437 4.69321L120.168 4.4287L119.893 4.16792L119.614 3.91985L119.328 3.67551L119.038 3.43417L118.738 3.20477L118.433 2.9836L118.127 2.76467L117.814 2.5547L117.495 2.35595L117.17 2.16018L116.842 1.97263L116.513 1.79703L116.177 1.62443L115.836 1.46378L115.491 1.31135L115.143 1.16191L114.793 1.02442L114.44 0.898891L114.084 0.775602L113.725 0.665015L113.362 0.561153L112.998 0.46551L112.631 0.378087L112.26 0.301872L111.888 0.233129L111.518 0.171111L111.143 0.121048L110.773 0.079204L110.393 0.0455797L110.02 0.0224162L109.645 0.00672487L109.19 0H77.3509H70.3683H56.394H49.4069H35.4326L29.5244 12.6682L26.5737 18.9978L24.7004 23.014L19.8795 12.6682H19.878L13.9743 0H0L17.7178 38H31.6876L40.548 18.9978L43.5002 12.6682H43.5017H50.4873H76.2727H83.2599H109.19L109.353 12.6719L109.517 12.6831L109.683 12.7055L109.847 12.7369L110.008 12.7743L110.168 12.8206L110.324 12.8781L110.478 12.9394L110.627 13.0119L110.773 13.0918L110.914 13.1763L111.048 13.2726L111.182 13.3713L111.309 13.4789L111.427 13.5939L111.542 13.715L111.649 13.842L111.751 13.9713L111.843 14.1088L111.932 14.2507L112.012 14.3964L112.08 14.5466L112.145 14.6991L112.199 14.8552L112.249 15.0121L112.287 15.1765L112.318 15.3372L112.337 15.5016L112.352 15.666L112.355 15.8348L112.352 16L112.337 16.1643L112.318 16.3272L112.287 16.4924L112.249 16.653L112.199 16.8107L112.145 16.9668L112.08 17.12L112.012 17.2695L111.932 17.4182L111.843 17.5594L111.751 17.6931L111.649 17.8284L111.542 17.9539L111.427 18.0727L111.309 18.187L111.182 18.2939L111.048 18.3933L110.914 18.4889L110.773 18.5771L110.627 18.654L110.478 18.7265L110.324 18.7915L110.168 18.8453L110.008 18.8917L109.847 18.929L109.683 18.9604L109.517 18.9836L109.353 18.994L109.19 18.9978H86.2128L92.1172 31.6659H106.092L109.044 38H123.019L118.612 28.553L118.915 28.3274L119.209 28.0905L119.496 27.8484L119.779 27.6004L120.058 27.3441L120.327 27.0833L120.593 26.8165L120.85 26.5408L121.102 26.2614L121.347 25.9744L121.584 25.68L121.814 25.3819L122.038 25.08L122.253 24.7737L122.464 24.4606L122.666 24.1393L122.858 23.818L123.046 23.4885L123.225 23.1552L123.393 22.8235L123.558 22.482L123.711 22.1383L123.856 21.7901L123.994 21.4374L124.123 21.0869L124.243 20.7268L124.357 20.3674L124.459 20.0072L124.555 19.6404L124.64 19.2735L124.72 18.9066L124.789 18.5352L124.847 18.1639L124.899 17.7888L124.941 17.4137L124.972 17.0401L125 16.665L125.014 16.2854L125.018 15.9103L125.014 15.533Z" fill="black"/>
</svg>
